# xmcd
#
# Track frame offsets:
#	150
#	12089
#	24404
#	38925
#	48913
#	63364
#	78068
#	92346
#	109910
#	124213
#	141631
#	156496
#
# Disc length: 2238 seconds
#
# Revision: 0
# Processed by: cddbd v1.5.2PL0 Copyright (c) Steve Scherf et al.
# Submitted via: audiograbber 1.83.01
#
DISCID=9708bc0c
DTITLE=pedro infante - vol 2
DYEAR=1900
DGENRE=karaoke
TTITLE0=mi carinito
TTITLE1=nocturnal
TTITLE2=adios a mis chorreadas
TTITLE3=corazon
TTITLE4=carta a eufemia
TTITLE5=que seas feliz
TTITLE6=la verdolaga
TTITLE7=cina anos
TTITLE8=la tertulia
TTITLE9=enamorada
TTITLE10=mi tenampa
TTITLE11=sus ojitos
EXTD=
EXTT0=
EXTT1=
EXTT2=
EXTT3=
EXTT4=
EXTT5=
EXTT6=
EXTT7=
EXTT8=
EXTT9=
EXTT10=
EXTT11=
PLAYORDER=
